<?xml version="1.0" standalone="no"?>
<!DOCTYPE svg PUBLIC "-//W3C//DTD SVG 20010904//EN"
 "http://www.w3.org/TR/2001/REC-SVG-20010904/DTD/svg10.dtd">
<svg version="1.0" xmlns="http://www.w3.org/2000/svg"
 width="78.000000pt" height="55.000000pt" viewBox="0 0 78.000000 55.000000"
 preserveAspectRatio="xMidYMid meet">

<g transform="translate(0.000000,55.000000) scale(0.100000,-0.100000)"
fill="#000000" stroke="none">
<path d="M2 273 c1 -153 4 -241 7 -197 l6 81 163 -72 c90 -40 166 -76 169 -79
18 -18 23 4 23 100 l0 105 -132 63 c-73 34 -154 71 -181 81 l-47 18 0 83 0 84
173 0 c99 0 166 -4 157 -9 -8 -5 -79 -37 -157 -71 -79 -35 -143 -66 -143 -69
0 -3 54 -30 119 -59 l118 -53 49 23 49 23 3 108 c2 85 6 107 17 107 11 0 15
-23 17 -111 l3 -111 47 -19 48 -19 120 54 c88 39 117 56 108 63 -7 6 -78 39
-158 74 l-145 64 175 5 c127 4 68 6 -217 8 l-393 2 2 -277z"/>
<path d="M598 297 l-178 -82 0 -107 0 -106 148 65 c81 36 162 71 180 79 l32
14 0 110 c0 61 -1 110 -2 109 -2 0 -83 -37 -180 -82z"/>
</g>
</svg>
