<?xml version="1.0" standalone="no"?>
<!DOCTYPE svg PUBLIC "-//W3C//DTD SVG 20010904//EN"
 "http://www.w3.org/TR/2001/REC-SVG-20010904/DTD/svg10.dtd">
<svg version="1.0" xmlns="http://www.w3.org/2000/svg"
 width="78.000000pt" height="55.000000pt" viewBox="0 0 78.000000 55.000000"
 preserveAspectRatio="xMidYMid meet">

<g transform="translate(0.000000,55.000000) scale(0.100000,-0.100000)"
fill="#000000" stroke="none">
<path d="M2 273 c1 -153 4 -241 7 -197 l6 81 163 -72 c90 -40 166 -76 169 -79
18 -18 23 4 23 100 l0 105 -132 63 c-73 34 -154 71 -181 81 l-47 18 0 83 0 84
172 0 c94 0 169 -2 167 -4 -3 -3 -69 -34 -149 -69 -79 -35 -145 -68 -147 -73
-3 -10 198 -107 222 -107 30 0 93 36 99 57 3 11 6 60 6 109 0 70 3 87 15 87
12 0 15 -21 17 -111 l3 -111 48 -19 47 -19 103 46 c110 50 132 63 120 74 -4 4
-73 36 -153 71 l-145 64 175 5 c127 4 68 6 -217 8 l-393 2 2 -277z"/>
<path d="M598 297 l-178 -82 0 -107 0 -106 148 65 c81 36 162 71 180 79 l32
14 0 110 c0 61 -1 110 -2 109 -2 0 -83 -37 -180 -82z"/>
</g>
</svg>
