<?xml version="1.0" standalone="no"?>
<!DOCTYPE svg PUBLIC "-//W3C//DTD SVG 20010904//EN"
 "http://www.w3.org/TR/2001/REC-SVG-20010904/DTD/svg10.dtd">
<svg version="1.0" xmlns="http://www.w3.org/2000/svg"
 width="78.000000pt" height="55.000000pt" viewBox="0 0 78.000000 55.000000"
 preserveAspectRatio="xMidYMid meet">

<g transform="translate(0.000000,55.000000) scale(0.100000,-0.100000)"
fill="#000000" stroke="none">
<path d="M0 275 l0 -275 186 0 185 1 -3 108 c-2 60 0 107 5 104 4 -2 7 -51 7
-109 0 -85 3 -104 15 -104 12 0 15 22 18 113 l3 112 2 -112 2 -111 180 -2 179
-1 1 276 0 275 -390 0 -390 0 0 -275z"/>
</g>
</svg>
