<?xml version="1.0" standalone="no"?>
<!DOCTYPE svg PUBLIC "-//W3C//DTD SVG 20010904//EN"
 "http://www.w3.org/TR/2001/REC-SVG-20010904/DTD/svg10.dtd">
<svg version="1.0" xmlns="http://www.w3.org/2000/svg"
 width="78.000000pt" height="55.000000pt" viewBox="0 0 78.000000 55.000000"
 preserveAspectRatio="xMidYMid meet">

<g transform="translate(0.000000,55.000000) scale(0.100000,-0.100000)"
fill="#000000" stroke="none">
<path d="M2 273 c1 -153 4 -241 7 -197 l6 81 163 -72 c90 -40 166 -76 169 -79
18 -18 23 4 23 100 l0 105 -132 63 c-73 34 -154 71 -181 81 l-47 18 0 83 0 84
173 -1 c196 0 197 8 -7 -82 -66 -30 -121 -58 -123 -64 -2 -5 47 -33 108 -61
l112 -51 41 16 c66 26 66 26 66 139 0 85 3 104 15 104 12 0 15 -21 17 -111 l3
-111 48 -19 47 -19 115 52 c64 28 114 56 112 61 -2 6 -70 40 -153 76 l-149 66
175 5 c127 4 68 6 -217 8 l-393 2 2 -277z"/>
<path d="M598 297 l-178 -82 0 -107 0 -106 148 65 c81 36 162 71 180 79 l32
14 0 110 c0 61 -1 110 -2 109 -2 0 -83 -37 -180 -82z"/>
</g>
</svg>
